<?xml version="1.0" encoding="UTF-8" standalone="no"?>
<svg
   width="512"
   height="512"
   viewBox="0 0 512 512"
   version="1.1"
   id="svg11"
   xmlns="http://www.w3.org/2000/svg">
  <defs
     id="defs1">
    <clipPath
       clipPathUnits="userSpaceOnUse"
       id="clipHatching">
      <rect
         width="8"
         height="8"
         x="0"
         y="0"
         id="rect1" />
    </clipPath>
    <pattern
       patternUnits="userSpaceOnUse"
       width="8"
       height="8"
       id="hatching">
      <path
         d="M 1,-1 -1,1 M 9,7 7,9 M 9,-1 -1,9"
         clip-path="url(#clipHatching)"
         id="path1" />
    </pattern>
  </defs>
  <g
     id="layer1">
    <path
       id="path14"
       style="fill:#7d8cc4;fill-opacity:1;stroke-width:0.930444"
       d="m 170.30469,158.23047 -28.45117,-2.79492 c -18.79141,-1.84667 -35.42395,11.61306 -37.29297,30.17969 L 89.632814,333.91407 c -1.869023,18.56661 11.753506,35.00099 30.544916,36.84765 l 229.8047,22.58204 c 9.70118,0.95335 18.80687,-2.19565 25.62304,-7.99806 -8.36828,6.53819 -19.88665,8.6816 -30.67187,4.625 L 144.78515,314.68946 c -16.36639,-6.15582 -24.61412,-24.12129 -18.49218,-40.28126 z" />
    <path
       id="path17"
       style="fill:#ffa69e;fill-opacity:0.898039;stroke-width:0.861647"
       d="m 239.48633,136.06836 -23.70313,-8.79297 c -16.36638,-6.1558 -34.46986,1.89669 -40.59179,18.05664 L 126.29297,274.4082 c -6.12194,16.15995 2.12579,34.12545 18.49219,40.28125 l 200.14843,75.28125 c 2.75431,1.03597 5.55644,1.63634 8.34375,1.89649 -4.60766,-0.63767 -9.14641,-2.3725 -13.21289,-5.28516 L 178.55664,270.90234 c -13.20654,-9.45932 -16.28748,-27.56432 -6.9082,-40.59375 z" />
    <path
       id="path15"
       style="fill:#93e1d8;fill-opacity:1;stroke-width:0.800492"
       d="m 271.10352,114.24023 c -9.37561,-0.3222 -18.67701,3.85269 -24.53907,11.9961 L 171.64844,230.3086 c -9.37929,13.02944 -6.29835,31.13441 6.9082,40.59374 l 161.50781,115.67969 c 13.20656,9.45934 31.38829,6.58609 40.76758,-6.44336 l 74.91602,-104.07226 c 9.37929,-13.02945 6.29835,-31.13442 -6.90821,-40.59375 L 287.33399,119.79297 c -4.95247,-3.54725 -10.60511,-5.35941 -16.23047,-5.55274 z m -0.51563,23.26563 c 2.04286,0.0702 4.09604,0.72939 5.89453,2.01758 l 58.65039,42.00976 c 4.79598,3.43517 5.91588,10.00858 2.50977,14.74024 l -27.20704,37.79492 c -3.4061,4.73166 -10.0087,5.77501 -14.80468,2.33985 l -58.65234,-42.00977 c -4.79598,-3.43517 -5.91392,-10.01053 -2.50781,-14.74219 l 27.20507,-37.79297 c 2.12882,-2.95729 5.50735,-4.47443 8.91211,-4.35742 z" />
  </g>
  <g
     id="keylines"
     style="display:none">
    <circle
       cx="256"
       cy="256"
       r="80"
       id="circle8" />
    <circle
       cx="256"
       cy="256"
       r="176"
       id="circle9" />
    <rect
       width="256"
       height="352"
       x="128"
       y="80"
       ry="24"
       id="rect9" />
    <rect
       width="352"
       height="256"
       x="80"
       y="128"
       ry="24"
       id="rect10" />
    <rect
       width="304"
       height="304"
       x="104"
       y="104"
       ry="24" />
  </g>
  <g
     id="mask"
     style="display:none">
    <path
       d="M 0,0 V 512 H 512 V 0 Z M 64,64 H 448 V 448 H 64 Z"
       style="fill:url(#hatching)"
       id="path10" />
    <path
       d="m 256,512 c 112.1778,0 174.5778,0 215.2889,-40.7111 C 512,430.5778 512,368.1778 512,256 512,143.8222 512,81.4222 471.2889,40.7111 430.5778,0 368.1778,0 256,0 143.8222,0 81.4222,0 40.7111,40.7111 0,81.4222 0,143.8222 0,256 0,368.1778 0,430.5778 40.7111,471.2889 81.4222,512 143.8222,512 256,512 Z"
       id="path11" />
    <circle
       cx="256"
       cy="256"
       r="256"
       id="circle11" />
    <rect
       width="512"
       height="512"
       x="0"
       y="0"
       ry="128"
       id="rect11" />
  </g>
</svg>
